<svg xmlns="http://www.w3.org/2000/svg" version="1.1" xmlns:xlink="http://www.w3.org/1999/xlink" xmlns:svgjs="http://svgjs.dev/svgjs" width="1000" height="174" viewBox="0 0 1000 174"><g transform="matrix(1,0,0,1,-0.6060606060606233,-0.08007391533767816)"><svg viewBox="0 0 396 69" data-background-color="#ffffff" preserveAspectRatio="xMidYMid meet" height="174" width="1000" xmlns="http://www.w3.org/2000/svg" xmlns:xlink="http://www.w3.org/1999/xlink"><g id="tight-bounds" transform="matrix(1,0,0,1,0.2400000000000091,0.03175390975084724)"><svg viewBox="0 0 395.52 68.93649264106348" height="68.93649264106348" width="395.52"><g><svg viewBox="0 0 546.8516454145478 95.31258704963953" height="68.93649264106348" width="395.52"><g><rect width="3.919723909091945" height="69.31197538703887" x="137.15086415181207" y="13.00030583130033" fill="#0d7f38" opacity="1" stroke-width="0" stroke="transparent" fill-opacity="1" class="rect-o-0" data-fill-palette-color="primary" rx="1%" id="o-0" data-palette-color="#0d7f38"></rect></g><g transform="matrix(1,0,0,1,151.33164541454784,13.17272368052182)"><svg viewBox="0 0 395.5199999999999 68.96713968859589" height="68.96713968859589" width="395.5199999999999"><g id="textblocktransform"><svg viewBox="0 0 395.5199999999999 68.96713968859589" height="68.96713968859589" width="395.5199999999999" id="textblock"><g><svg viewBox="0 0 395.5199999999999 43.46505936073059" height="43.46505936073059" width="395.5199999999999"><g transform="matrix(1,0,0,1,0,0)"><svg width="395.5199999999999" viewBox="3.4000000953674316 -35.5 329.08001708984375 36.099998474121094" height="43.46505936073059" data-palette-color="#0d7f38"><g class="undefined-text-0" data-fill-palette-color="primary" id="text-0"><path d="M22.15 0L22.15-14.55 10.55-14.55 10.55 0 3.4 0 3.4-34.9 10.55-34.9 10.55-20.75 22.15-20.75 22.15-34.9 29.3-34.9 29.3 0 22.15 0ZM50.75 0L43.6 0 43.6-13.15 32.95-34.9 40.75-34.9 46.95-20.6 47.75-20.6 53.75-34.9 61.4-34.9 50.75-13.15 50.75 0ZM65.05 0L65.05-34.9 77.3-34.9Q80.5-34.9 83.02-33.93 85.55-32.95 87.3-30.85 89.05-28.75 90-25.45 90.95-22.15 90.95-17.45L90.95-17.45Q90.95-12.75 90-9.45 89.05-6.15 87.3-4.05 85.55-1.95 83.02-0.98 80.5 0 77.3 0L77.3 0 65.05 0ZM72.2-6.25L77.3-6.25Q83.35-6.25 83.35-13.25L83.35-13.25 83.35-21.65Q83.35-28.65 77.3-28.65L77.3-28.65 72.2-28.65 72.2-6.25ZM103.69-13.2L103.69 0 96.54 0 96.54-34.9 111.64-34.9Q116.34-34.9 118.79-31.95 121.24-29 121.24-24.05L121.24-24.05Q121.24-20.2 119.79-17.55 118.34-14.9 115.49-13.85L115.49-13.85 121.59 0 113.84 0 108.44-13.2 103.69-13.2ZM103.69-19.15L110.74-19.15Q112.19-19.15 113.02-19.88 113.84-20.6 113.84-22.4L113.84-22.4 113.84-25.4Q113.84-27.2 113.02-27.93 112.19-28.65 110.74-28.65L110.74-28.65 103.69-28.65 103.69-19.15ZM139.69 0.6L139.69 0.6Q136.54 0.6 133.99-0.38 131.44-1.35 129.64-3.53 127.84-5.7 126.84-9.13 125.84-12.55 125.84-17.45L125.84-17.45Q125.84-22.35 126.84-25.78 127.84-29.2 129.64-31.38 131.44-33.55 133.99-34.52 136.54-35.5 139.69-35.5L139.69-35.5Q142.84-35.5 145.39-34.52 147.94-33.55 149.74-31.38 151.54-29.2 152.54-25.78 153.54-22.35 153.54-17.45L153.54-17.45Q153.54-12.55 152.54-9.13 151.54-5.7 149.74-3.53 147.94-1.35 145.39-0.38 142.84 0.6 139.69 0.6ZM139.69-5.7L139.69-5.7Q142.69-5.7 144.32-7.5 145.94-9.3 145.94-12.9L145.94-12.9 145.94-22Q145.94-25.6 144.32-27.4 142.69-29.2 139.69-29.2L139.69-29.2Q136.69-29.2 135.07-27.4 133.44-25.6 133.44-22L133.44-22 133.44-12.9Q133.44-9.3 135.07-7.5 136.69-5.7 139.69-5.7ZM169.34 0.6L169.34 0.6Q161.49 0.6 157.04-4.9L157.04-4.9 161.64-9.5Q164.64-5.65 169.49-5.65L169.49-5.65Q174.49-5.65 174.49-10.05L174.49-10.05Q174.49-11.85 173.59-12.85 172.69-13.85 170.79-14.25L170.79-14.25 167.59-14.85Q162.74-15.75 160.46-18.23 158.19-20.7 158.19-25.1L158.19-25.1Q158.19-30.2 161.19-32.85 164.19-35.5 169.99-35.5L169.99-35.5Q177.39-35.5 181.24-30.7L181.24-30.7 176.64-26.1Q175.34-27.7 173.71-28.48 172.09-29.25 169.89-29.25L169.89-29.25Q167.49-29.25 166.41-28.35 165.34-27.45 165.34-25.45L165.34-25.45Q165.34-23.7 166.16-22.8 166.99-21.9 168.84-21.5L168.84-21.5 172.04-20.85Q174.59-20.3 176.41-19.53 178.24-18.75 179.41-17.55 180.59-16.35 181.11-14.7 181.64-13.05 181.64-10.85L181.64-10.85Q181.64-5.25 178.49-2.33 175.34 0.6 169.34 0.6ZM194.09 0L186.94 0 186.94-34.9 202.04-34.9Q206.74-34.9 209.19-31.9 211.64-28.9 211.64-23.9L211.64-23.9Q211.64-18.9 209.19-15.9 206.74-12.9 202.04-12.9L202.04-12.9 194.09-12.9 194.09 0ZM194.09-28.65L194.09-19.15 201.14-19.15Q202.59-19.15 203.41-19.9 204.24-20.65 204.24-22.4L204.24-22.4 204.24-25.4Q204.24-27.15 203.41-27.9 202.59-28.65 201.14-28.65L201.14-28.65 194.09-28.65ZM223.83-13.2L223.83 0 216.68 0 216.68-34.9 231.78-34.9Q236.48-34.9 238.93-31.95 241.38-29 241.38-24.05L241.38-24.05Q241.38-20.2 239.93-17.55 238.48-14.9 235.63-13.85L235.63-13.85 241.73 0 233.98 0 228.58-13.2 223.83-13.2ZM223.83-19.15L230.88-19.15Q232.33-19.15 233.16-19.88 233.98-20.6 233.98-22.4L233.98-22.4 233.98-25.4Q233.98-27.2 233.16-27.93 232.33-28.65 230.88-28.65L230.88-28.65 223.83-28.65 223.83-19.15ZM259.83 0.6L259.83 0.6Q256.68 0.6 254.13-0.38 251.58-1.35 249.78-3.53 247.98-5.7 246.98-9.13 245.98-12.55 245.98-17.45L245.98-17.45Q245.98-22.35 246.98-25.78 247.98-29.2 249.78-31.38 251.58-33.55 254.13-34.52 256.68-35.5 259.83-35.5L259.83-35.5Q262.98-35.5 265.53-34.52 268.08-33.55 269.88-31.38 271.68-29.2 272.68-25.78 273.68-22.35 273.68-17.45L273.68-17.45Q273.68-12.55 272.68-9.13 271.68-5.7 269.88-3.53 268.08-1.35 265.53-0.38 262.98 0.6 259.83 0.6ZM259.83-5.7L259.83-5.7Q262.83-5.7 264.46-7.5 266.08-9.3 266.08-12.9L266.08-12.9 266.08-22Q266.08-25.6 264.46-27.4 262.83-29.2 259.83-29.2L259.83-29.2Q256.83-29.2 255.21-27.4 253.58-25.6 253.58-22L253.58-22 253.58-12.9Q253.58-9.3 255.21-7.5 256.83-5.7 259.83-5.7ZM279.08-34.9L286.23-34.9 286.23-12.25Q286.23-8.8 287.4-7.28 288.58-5.75 291.63-5.75L291.63-5.75Q294.68-5.75 295.85-7.28 297.03-8.8 297.03-12.25L297.03-12.25 297.03-34.9 304.18-34.9 304.18-13.2Q304.18-9.5 303.53-6.9 302.88-4.3 301.4-2.63 299.93-0.95 297.53-0.18 295.13 0.6 291.63 0.6L291.63 0.6Q288.13 0.6 285.73-0.18 283.33-0.95 281.85-2.63 280.38-4.3 279.73-6.9 279.08-9.5 279.08-13.2L279.08-13.2 279.08-34.9ZM332.48-28.65L324.13-28.65 324.13 0 316.98 0 316.98-28.65 308.63-28.65 308.63-34.9 332.48-34.9 332.48-28.65Z" fill="#0d7f38" data-fill-palette-color="primary"></path></g></svg></g></svg></g><g transform="matrix(1,0,0,1,0,53.72611671437443)"><svg viewBox="0 0 232.20979199999996 15.241022974221462" height="15.241022974221462" width="232.20979199999996"><g transform="matrix(1,0,0,1,0,0)"><svg width="232.20979199999996" viewBox="2.5 -41.400001525878906 820.3699951171875 53.85000228881836" height="15.241022974221462" data-palette-color="#91b56a"><path d="M6.5-3L6.5-34.05 2.5-34.65 2.5-37.15 11.8-37.15 28.45-12.75 31.25-7.45 31.25-34.05 26.9-34.65 26.9-37.15 38.7-37.15 38.7-34.65 34.7-34.05 34.7 0 30.75 0 13.75-24.95 9.9-31.55 9.9-2.95 14.65-2.45 14.65 0 2.5 0 2.5-2.45 6.5-3ZM54.5 0.55Q48.45 0.55 45.27-3.4 42.1-7.35 42.1-13.95L42.1-13.95Q42.1-18.3 43.75-21.6 45.4-24.9 48.37-26.7 51.35-28.5 55.15-28.5L55.15-28.5Q59.8-28.5 62.37-25.93 64.95-23.35 65.1-18.55L65.1-18.55Q65.1-15.5 64.75-13.9L64.75-13.9 47.55-13.9Q47.65-8.95 49.85-5.93 52.05-2.9 56.1-2.9L56.1-2.9Q58.1-2.9 60.27-3.63 62.45-4.35 63.65-5.35L63.65-5.35 64.6-3.15Q63.15-1.65 60.3-0.55 57.45 0.55 54.5 0.55L54.5 0.55ZM47.6-16.55L59.6-16.55Q59.75-17.6 59.75-18.7L59.75-18.7Q59.7-21.95 58.37-23.83 57.05-25.7 54.2-25.7L54.2-25.7Q51.3-25.7 49.57-23.6 47.85-21.5 47.6-16.55L47.6-16.55ZM66.8-25.4L66.8-27.75 78.45-27.75 78.45-25.4 74.65-24.8 78.8-10.1 80.25-3.75 81.7-10.15 86.5-27.75 91.4-27.75 96.35-10.15 97.8-3.7 99.4-10.1 103.45-24.75 99.65-25.4 99.65-27.75 109.8-27.75 109.8-25.4 107.15-24.75 99.4 0.4 94.7 0.4 89.4-17.25 88.1-23.45 87.05-17.25 82 0.4 77.35 0.4 69.35-24.8 66.8-25.4ZM135.44 0.55Q132.84 0.55 130.79 0.1 128.74-0.35 126.29-1.1L126.29-1.1Q124.79-1.65 124.04-1.7L124.04-1.7 124.44-10.75 127.64-10.75 128.49-4.25Q129.34-3.45 131.27-2.83 133.19-2.2 135.49-2.2L135.49-2.2Q139.29-2.2 141.27-3.9 143.24-5.6 143.24-8.6L143.24-8.6Q143.24-10.55 142.17-11.95 141.09-13.35 139.32-14.35 137.54-15.35 134.44-16.7L134.44-16.7Q131.64-17.95 129.57-19.25 127.49-20.55 125.97-22.73 124.44-24.9 124.44-27.95L124.44-27.95Q124.44-30.7 125.92-32.88 127.39-35.05 130.17-36.3 132.94-37.55 136.64-37.55L136.64-37.55Q138.94-37.55 140.72-37.2 142.49-36.85 144.74-36.25L144.74-36.25Q145.74-35.9 146.44-35.8L146.44-35.8 146.14-27.4 143.09-27.4 142.09-33.55Q141.59-34.05 140.02-34.5 138.44-34.95 136.59-34.95L136.59-34.95Q133.14-34.95 131.37-33.5 129.59-32.05 129.59-29.3L129.59-29.3Q129.59-27.3 130.67-25.95 131.74-24.6 133.34-23.65 134.94-22.7 138.44-21.05L138.44-21.05Q141.69-19.5 143.74-18.25 145.79-17 147.27-14.98 148.74-12.95 148.74-10.15L148.74-10.15Q148.74-7.5 147.27-5.05 145.79-2.6 142.77-1.03 139.74 0.55 135.44 0.55L135.44 0.55ZM152.89-13.95Q152.89-18.45 154.74-21.75 156.59-25.05 159.61-26.78 162.64-28.5 166.09-28.5L166.09-28.5Q172.39-28.5 175.56-24.5 178.74-20.5 178.74-14L178.74-14Q178.74-9.45 176.89-6.15 175.04-2.85 172.01-1.15 168.99 0.55 165.54 0.55L165.54 0.55Q159.24 0.55 156.06-3.45 152.89-7.45 152.89-13.95L152.89-13.95ZM165.84-2.3Q169.29-2.3 171.14-5.15 172.99-8 172.99-13.6L172.99-13.6Q172.99-19.15 171.29-22.4 169.59-25.65 165.84-25.65L165.84-25.65Q162.39-25.65 160.51-22.8 158.64-19.95 158.64-14.35L158.64-14.35Q158.64-8.8 160.39-5.55 162.14-2.3 165.84-2.3L165.84-2.3ZM186.94-2.9L186.94-37.3 182.89-37.85 182.89-40 190.94-40.95 191.04-40.95 192.14-40.2 192.14-2.85 196.39-2.45 196.39 0 182.89 0 182.89-2.45 186.94-2.9ZM222.68 0.45Q221.28 0.45 220.61-0.1 219.93-0.65 219.93-1.9L219.93-1.9 219.93-3.6Q218.28-1.95 215.81-0.7 213.33 0.55 210.83 0.55L210.83 0.55Q206.18 0.55 204.23-1.95 202.28-4.45 202.28-10.2L202.28-10.2 202.28-24.7 199.48-25.5 199.48-27.7 206.48-28.35 206.53-28.35 207.48-27.75 207.48-10.6Q207.48-7.7 207.91-6.08 208.33-4.45 209.41-3.68 210.48-2.9 212.53-2.9L212.53-2.9Q214.53-2.9 216.28-3.75 218.03-4.6 219.33-5.75L219.33-5.75 219.33-24.7 215.73-25.5 215.73-27.7 223.33-28.35 223.38-28.35 224.53-27.75 224.53-2.55 227.53-2.55 227.48-0.3Q226.08 0.05 225.06 0.25 224.03 0.45 222.68 0.45L222.68 0.45ZM240.08 0.5Q237.23 0.5 235.83-0.8 234.43-2.1 234.43-5.25L234.43-5.25 234.43-24.45 230.83-24.45 230.83-26.7Q231.08-26.75 232.23-27.05 233.38-27.35 233.78-27.6L233.78-27.6Q234.58-28.05 235.03-29.4L235.03-29.4Q235.43-30.35 235.98-32.45 236.53-34.55 236.63-34.95L236.63-34.95 239.58-34.95 239.68-27.75 248.03-27.75 248.03-24.45 239.68-24.45 239.68-9.1Q239.68-6.25 239.86-5.1 240.03-3.95 240.61-3.6 241.18-3.25 242.58-3.25L242.58-3.25Q243.93-3.25 245.56-3.6 247.18-3.95 248.08-4.35L248.08-4.35 248.83-2.1Q247.63-1.2 244.96-0.35 242.28 0.5 240.08 0.5L240.08 0.5ZM257.78-32.75Q256.18-32.75 255.38-33.65 254.58-34.55 254.58-35.95L254.58-35.95Q254.58-37.55 255.55-38.6 256.53-39.65 258.23-39.65L258.23-39.65Q259.93-39.65 260.73-38.75 261.53-37.85 261.53-36.45L261.53-36.45Q261.53-34.75 260.55-33.75 259.58-32.75 257.83-32.75L257.83-32.75 257.78-32.75ZM255.78-2.9L255.78-23.9 251.98-24.8 251.98-27.45 259.73-28.4 259.83-28.4 260.98-27.5 260.98-2.85 264.98-2.45 264.98 0 251.73 0 251.73-2.45 255.78-2.9ZM268.53-13.95Q268.53-18.45 270.38-21.75 272.23-25.05 275.25-26.78 278.28-28.5 281.73-28.5L281.73-28.5Q288.03-28.5 291.2-24.5 294.38-20.5 294.38-14L294.38-14Q294.38-9.45 292.53-6.15 290.68-2.85 287.65-1.15 284.63 0.55 281.18 0.55L281.18 0.55Q274.88 0.55 271.7-3.45 268.53-7.45 268.53-13.95L268.53-13.95ZM281.48-2.3Q284.93-2.3 286.78-5.15 288.63-8 288.63-13.6L288.63-13.6Q288.63-19.15 286.93-22.4 285.23-25.65 281.48-25.65L281.48-25.65Q278.03-25.65 276.15-22.8 274.28-19.95 274.28-14.35L274.28-14.35Q274.28-8.8 276.03-5.55 277.78-2.3 281.48-2.3L281.48-2.3ZM301.92-2.9L301.92-23.9 298.32-24.8 298.32-27.5 305.47-28.4 305.62-28.4 306.67-27.5 306.67-25.4 306.62-24.2Q308.42-25.8 311.37-27.1 314.32-28.4 317.02-28.4L317.02-28.4Q320.17-28.4 321.9-27.2 323.62-26 324.32-23.53 325.02-21.05 325.02-16.85L325.02-16.85 325.02-2.85 328.52-2.5 328.52 0 316.67 0 316.67-2.45 319.77-2.85 319.77-16.9Q319.77-19.85 319.37-21.53 318.97-23.2 317.87-24.03 316.77-24.85 314.67-24.85L314.67-24.85Q312.87-24.85 310.82-23.95 308.77-23.05 307.17-21.85L307.17-21.85 307.17-2.9 310.57-2.45 310.57 0 298.77 0 298.77-2.45 301.92-2.9ZM352.52 0.5Q349.67 0.5 348.27-0.8 346.87-2.1 346.87-5.25L346.87-5.25 346.87-24.45 343.27-24.45 343.27-26.7Q343.52-26.75 344.67-27.05 345.82-27.35 346.22-27.6L346.22-27.6Q347.02-28.05 347.47-29.4L347.47-29.4Q347.87-30.35 348.42-32.45 348.97-34.55 349.07-34.95L349.07-34.95 352.02-34.95 352.12-27.75 360.47-27.75 360.47-24.45 352.12-24.45 352.12-9.1Q352.12-6.25 352.29-5.1 352.47-3.95 353.04-3.6 353.62-3.25 355.02-3.25L355.02-3.25Q356.37-3.25 357.99-3.6 359.62-3.95 360.52-4.35L360.52-4.35 361.27-2.1Q360.07-1.2 357.39-0.35 354.72 0.5 352.52 0.5L352.52 0.5ZM364.32-13.95Q364.32-18.45 366.17-21.75 368.02-25.05 371.04-26.78 374.07-28.5 377.52-28.5L377.52-28.5Q383.82-28.5 386.99-24.5 390.17-20.5 390.17-14L390.17-14Q390.17-9.45 388.32-6.15 386.47-2.85 383.44-1.15 380.42 0.55 376.97 0.55L376.97 0.55Q370.67 0.55 367.49-3.45 364.32-7.45 364.32-13.95L364.32-13.95ZM377.27-2.3Q380.72-2.3 382.57-5.15 384.42-8 384.42-13.6L384.42-13.6Q384.42-19.15 382.72-22.4 381.02-25.65 377.27-25.65L377.27-25.65Q373.82-25.65 371.94-22.8 370.07-19.95 370.07-14.35L370.07-14.35Q370.07-8.8 371.82-5.55 373.57-2.3 377.27-2.3L377.27-2.3ZM410.86-2.95L410.86-34.05 406.91-34.65 406.91-37.15 420.51-37.15 420.51-34.65 416.21-34.05 416.21-20.6 433.81-20.6 433.81-34.05 429.76-34.65 429.76-37.15 443.16-37.15 443.16-34.65 439.21-34.05 439.21-2.95 443.16-2.45 443.16 0 429.71 0 429.71-2.45 433.81-2.95 433.81-17.5 416.21-17.5 416.21-2.95 420.56-2.45 420.56 0 406.81 0 406.81-2.45 410.86-2.95ZM460.26 0.55Q454.21 0.55 451.03-3.4 447.86-7.35 447.86-13.95L447.86-13.95Q447.86-18.3 449.51-21.6 451.16-24.9 454.13-26.7 457.11-28.5 460.91-28.5L460.91-28.5Q465.56-28.5 468.13-25.93 470.71-23.35 470.86-18.55L470.86-18.55Q470.86-15.5 470.51-13.9L470.51-13.9 453.31-13.9Q453.41-8.95 455.61-5.93 457.81-2.9 461.86-2.9L461.86-2.9Q463.86-2.9 466.03-3.63 468.21-4.35 469.41-5.35L469.41-5.35 470.36-3.15Q468.91-1.65 466.06-0.55 463.21 0.55 460.26 0.55L460.26 0.55ZM453.36-16.55L465.36-16.55Q465.51-17.6 465.51-18.7L465.51-18.7Q465.46-21.95 464.13-23.83 462.81-25.7 459.96-25.7L459.96-25.7Q457.06-25.7 455.33-23.6 453.61-21.5 453.36-16.55L453.36-16.55ZM475.16-7.5Q475.16-12.2 479.86-14.43 484.56-16.65 491.76-16.8L491.76-16.8 491.76-18.2Q491.76-20.55 491.26-21.9 490.76-23.25 489.53-23.88 488.31-24.5 486.06-24.5L486.06-24.5Q483.51-24.5 481.48-23.78 479.46-23.05 477.46-22L477.46-22 476.21-24.6Q476.86-25.15 478.61-26.05 480.36-26.95 482.66-27.65 484.96-28.35 487.26-28.35L487.26-28.35Q490.81-28.35 492.88-27.38 494.96-26.4 495.86-24.25 496.76-22.1 496.76-18.5L496.76-18.5 496.76-2.45 499.71-2.45 499.71-0.25Q498.71 0 497.18 0.25 495.66 0.5 494.51 0.5L494.51 0.5Q493.11 0.5 492.61 0.08 492.11-0.35 492.11-1.8L492.11-1.8 492.11-3.45Q490.61-1.95 488.43-0.7 486.26 0.55 483.51 0.55L483.51 0.55Q479.91 0.55 477.53-1.53 475.16-3.6 475.16-7.5L475.16-7.5ZM485.66-2.85Q486.96-2.85 488.66-3.65 490.36-4.45 491.76-5.55L491.76-5.55 491.76-14.15Q486.31-14.15 483.53-12.48 480.76-10.8 480.76-8.1L480.76-8.1Q480.76-5.4 482.08-4.13 483.41-2.85 485.66-2.85L485.66-2.85ZM506.85-2.9L506.85-37.3 502.8-37.85 502.8-40 510.85-40.95 510.95-40.95 512.05-40.2 512.05-2.85 516.3-2.45 516.3 0 502.8 0 502.8-2.45 506.85-2.9ZM528.4 0.5Q525.55 0.5 524.15-0.8 522.75-2.1 522.75-5.25L522.75-5.25 522.75-24.45 519.15-24.45 519.15-26.7Q519.4-26.75 520.55-27.05 521.7-27.35 522.1-27.6L522.1-27.6Q522.9-28.05 523.35-29.4L523.35-29.4Q523.75-30.35 524.3-32.45 524.85-34.55 524.95-34.95L524.95-34.95 527.9-34.95 528-27.75 536.35-27.75 536.35-24.45 528-24.45 528-9.1Q528-6.25 528.18-5.1 528.35-3.95 528.93-3.6 529.5-3.25 530.9-3.25L530.9-3.25Q532.25-3.25 533.88-3.6 535.5-3.95 536.4-4.35L536.4-4.35 537.15-2.1Q535.95-1.2 533.27-0.35 530.6 0.5 528.4 0.5L528.4 0.5ZM542.9-2.85L542.9-37.3 538.7-37.85 538.7-40 546.85-40.95 546.95-40.95 548.05-40.2 548.05-28.6 547.85-24.35Q549.45-25.8 552.25-27.1 555.05-28.4 557.9-28.4L557.9-28.4Q561.05-28.4 562.8-27.2 564.55-26 565.25-23.53 565.95-21.05 565.95-16.85L565.95-16.85 565.95-2.9 569.45-2.45 569.45 0 557.5 0 557.5-2.45 560.75-2.9 560.75-16.9Q560.75-19.85 560.35-21.53 559.95-23.2 558.85-24.03 557.75-24.85 555.55-24.85L555.55-24.85Q553.75-24.85 551.7-23.95 549.65-23.05 548.1-21.85L548.1-21.85 548.1-2.9 551.55-2.45 551.55 0 539.9 0 539.9-2.45 542.9-2.85ZM577.19 12.45Q576.35 12.45 575.52 12.35 574.69 12.25 574.35 12.05L574.35 12.05 574.35 7.7Q574.64 7.9 575.52 8 576.39 8.1 577.19 8.1L577.19 8.1Q579.6 8.1 581.42 6.43 583.25 4.75 584.94 0L584.94 0 582.54 0 573.04-24.75 570.75-25.4 570.75-27.75 582.79-27.75 582.79-25.4 578.94-24.8 583.85-10.05 586.14-2.75 588.29-10.1 592.75-24.8 589.39-25.4 589.39-27.75 599.44-27.75 599.44-25.4 596.94-24.8Q589.6-2.3 588.29 0.75L588.29 0.75Q586.6 5.05 585.19 7.48 583.79 9.9 581.89 11.18 580 12.45 577.19 12.45L577.19 12.45ZM617.89-2.95L617.89-34.05 613.84-34.65 613.84-37.15 628.19-37.15 628.19-34.65 623.24-34.05 623.24-2.95 636.14-3.4 639.09-11.8 642.14-11.35 640.39 0 613.74 0 613.74-2.45 617.89-2.95ZM651.19-32.75Q649.59-32.75 648.79-33.65 647.99-34.55 647.99-35.95L647.99-35.95Q647.99-37.55 648.96-38.6 649.94-39.65 651.64-39.65L651.64-39.65Q653.34-39.65 654.14-38.75 654.94-37.85 654.94-36.45L654.94-36.45Q654.94-34.75 653.96-33.75 652.99-32.75 651.24-32.75L651.24-32.75 651.19-32.75ZM649.19-2.9L649.19-23.9 645.39-24.8 645.39-27.45 653.14-28.4 653.24-28.4 654.39-27.5 654.39-2.85 658.39-2.45 658.39 0 645.14 0 645.14-2.45 649.19-2.9ZM665.93-2.9L665.93-24.45 661.23-24.45 661.23-26.75 665.93-27.7 665.93-30.05Q665.93-33.15 667.56-35.75 669.18-38.35 671.81-39.88 674.43-41.4 677.38-41.4L677.38-41.4Q679.08-41.4 680.33-40.95L680.33-40.95 680.33-35.95Q679.88-36.35 678.56-36.73 677.23-37.1 675.63-37.1L675.63-37.1Q673.28-37.1 672.21-35.88 671.13-34.65 671.13-31.65L671.13-31.65 671.13-27.7 678.03-27.7 678.03-24.45 671.13-24.45 671.13-2.85 676.68-2.45 676.68 0 661.68 0 661.68-2.45 665.93-2.9ZM694.23 0.55Q688.18 0.55 685.01-3.4 681.83-7.35 681.83-13.95L681.83-13.95Q681.83-18.3 683.48-21.6 685.13-24.9 688.11-26.7 691.08-28.5 694.88-28.5L694.88-28.5Q699.53-28.5 702.11-25.93 704.68-23.35 704.83-18.55L704.83-18.55Q704.83-15.5 704.48-13.9L704.48-13.9 687.28-13.9Q687.38-8.95 689.58-5.93 691.78-2.9 695.83-2.9L695.83-2.9Q697.83-2.9 700.01-3.63 702.18-4.35 703.38-5.35L703.38-5.35 704.33-3.15Q702.88-1.65 700.03-0.55 697.18 0.55 694.23 0.55L694.23 0.55ZM687.33-16.55L699.33-16.55Q699.48-17.6 699.48-18.7L699.48-18.7Q699.43-21.95 698.11-23.83 696.78-25.7 693.93-25.7L693.93-25.7Q691.03-25.7 689.31-23.6 687.58-21.5 687.33-16.55L687.33-16.55ZM712.88-7.9L713.78-4Q714.28-3.25 715.9-2.65 717.53-2.05 719.33-2.05L719.33-2.05Q722.18-2.05 723.53-3.15 724.88-4.25 724.88-6.2L724.88-6.2Q724.88-7.55 724.03-8.55 723.18-9.55 721.65-10.33 720.13-11.1 717.28-12.2L717.28-12.2Q713.43-13.65 711.65-15.68 709.88-17.7 709.88-21L709.88-21Q709.88-23.2 711.2-24.85 712.53-26.5 714.85-27.43 717.18-28.35 720.03-28.35L720.03-28.35Q722.33-28.35 724.05-28 725.78-27.65 726.83-27.3 727.88-26.95 728.23-26.85L728.23-26.85 728.23-20.65 725.18-20.65 724.18-24.35Q723.88-24.95 722.58-25.38 721.28-25.8 719.68-25.8L719.68-25.8Q717.43-25.8 716.05-24.8 714.68-23.8 714.68-22.1L714.68-22.1Q714.68-20.6 715.4-19.63 716.13-18.65 717.23-18.05 718.33-17.45 720.23-16.65L720.23-16.65 721.23-16.25Q724.03-15.15 725.78-14.15 727.53-13.15 728.7-11.53 729.88-9.9 729.88-7.55L729.88-7.55Q729.88-3.85 727-1.65 724.13 0.55 719.13 0.55L719.13 0.55Q716.68 0.55 714-0.13 711.33-0.8 709.63-1.5L709.63-1.5 709.63-7.9 712.88-7.9ZM742.93 0.5Q740.08 0.5 738.68-0.8 737.28-2.1 737.28-5.25L737.28-5.25 737.28-24.45 733.68-24.45 733.68-26.7Q733.93-26.75 735.08-27.05 736.23-27.35 736.63-27.6L736.63-27.6Q737.43-28.05 737.88-29.4L737.88-29.4Q738.28-30.35 738.83-32.45 739.38-34.55 739.48-34.95L739.48-34.95 742.43-34.95 742.53-27.75 750.88-27.75 750.88-24.45 742.53-24.45 742.53-9.1Q742.53-6.25 742.7-5.1 742.88-3.95 743.45-3.6 744.03-3.25 745.43-3.25L745.43-3.25Q746.78-3.25 748.4-3.6 750.03-3.95 750.93-4.35L750.93-4.35 751.68-2.1Q750.48-1.2 747.8-0.35 745.13 0.5 742.93 0.5L742.93 0.5ZM758.77 12.45Q757.92 12.45 757.1 12.35 756.27 12.25 755.92 12.05L755.92 12.05 755.92 7.7Q756.22 7.9 757.1 8 757.97 8.1 758.77 8.1L758.77 8.1Q761.17 8.1 763 6.43 764.82 4.75 766.52 0L766.52 0 764.12 0 754.62-24.75 752.32-25.4 752.32-27.75 764.37-27.75 764.37-25.4 760.52-24.8 765.42-10.05 767.72-2.75 769.87-10.1 774.32-24.8 770.97-25.4 770.97-27.75 781.02-27.75 781.02-25.4 778.52-24.8Q771.17-2.3 769.87 0.75L769.87 0.75Q768.17 5.05 766.77 7.48 765.37 9.9 763.47 11.18 761.57 12.45 758.77 12.45L758.77 12.45ZM786.97-2.9L786.97-37.3 782.92-37.85 782.92-40 790.97-40.95 791.07-40.95 792.17-40.2 792.17-2.85 796.42-2.45 796.42 0 782.92 0 782.92-2.45 786.97-2.9ZM812.27 0.55Q806.22 0.55 803.04-3.4 799.87-7.35 799.87-13.95L799.87-13.95Q799.87-18.3 801.52-21.6 803.17-24.9 806.14-26.7 809.12-28.5 812.92-28.5L812.92-28.5Q817.57-28.5 820.14-25.93 822.72-23.35 822.87-18.55L822.87-18.55Q822.87-15.5 822.52-13.9L822.52-13.9 805.32-13.9Q805.42-8.95 807.62-5.93 809.82-2.9 813.87-2.9L813.87-2.9Q815.87-2.9 818.04-3.63 820.22-4.35 821.42-5.35L821.42-5.35 822.37-3.15Q820.92-1.65 818.07-0.55 815.22 0.55 812.27 0.55L812.27 0.55ZM805.37-16.55L817.37-16.55Q817.52-17.6 817.52-18.7L817.52-18.7Q817.47-21.95 816.14-23.83 814.82-25.7 811.97-25.7L811.97-25.7Q809.07-25.7 807.34-23.6 805.62-21.5 805.37-16.55L805.37-16.55Z" opacity="1" transform="matrix(1,0,0,1,0,0)" fill="#91b56a" class="undefined-text-1" data-fill-palette-color="secondary" id="text-1"></path></svg></g></svg></g></svg></g></svg></g><g><svg viewBox="0 0 126.88980679816822 95.31258704963953" height="95.31258704963953" width="126.88980679816822"><g><svg xmlns="http://www.w3.org/2000/svg" data-name="Layer 1" viewBox="30.99802589416504 86.98200225830078 450.0039367675781 338.01800537109375" x="0" y="0" height="95.31258704963953" width="126.88980679816822" class="icon-icon-0" data-fill-palette-color="accent" id="icon-0"><path d="M249 164.9V328h14V251.851l1.281-0.054c33.64-1.133 61.621-29.125 62.406-62.414l0.332-7.981a7 7 0 0 0-7.286-7.285l-7.991 0.334c-19.523 0.665-37.215 10.577-48.742 25.355V152.619c0-0.076 0-0.151 0-0.226-1.128-34.953-30.481-64.284-65.433-65.411-0.075 0-0.15 0.018-0.226 0.018h-5.363A6.942 6.942 0 0 0 185 93.957V99.32c0 0.075-0.012 0.151-0.009 0.226C186.1 134.025 214.674 163.036 249 164.9Z" fill="#8abe53" data-fill-palette-color="accent"></path><path d="M481 409.29V394H31v15.29A15.463 15.463 0 0 0 46.453 425H465.547A15.463 15.463 0 0 0 481 409.29Z" fill="#8abe53" data-fill-palette-color="accent"></path><path d="M481 311.35A15.161 15.161 0 0 0 465.547 296H442v32.433c0 3.865-3.335 6.567-7.2 6.567H350.524A6.25 6.25 0 0 1 344 328.433V296H305v32.433A6.527 6.527 0 0 1 298.137 335H213.863A6.527 6.527 0 0 1 207 328.433V296H168v32.433A6.25 6.25 0 0 1 161.476 335H77.2c-3.866 0-7.2-2.7-7.2-6.567V296H46.453A15.161 15.161 0 0 0 31 311.35V380H481Z" fill="#8abe53" data-fill-palette-color="accent"></path><path d="M106 164.9V328h14V251.851l1.034-0.054c33.64-1.133 61.5-29.124 62.281-62.414l0.272-7.98a7.052 7.052 0 0 0-7.332-7.286l-7.753 0.334A63.749 63.749 0 0 0 120 199.806V152.619c0-0.076-0.248-0.151-0.251-0.226-1.127-34.952-30.6-64.284-65.556-65.411-0.075 0-0.274 0.018-0.349 0.018H48.48C44.614 87 41 90.091 41 93.957V99.32c0 0.075 0.488 0.151 0.491 0.226C42.6 134.025 71 163.036 106 164.9Z" fill="#8abe53" data-fill-palette-color="accent"></path><path d="M386 164.9V328h14V251.851l1.111-0.054c33.641-1.133 61.536-29.124 62.321-62.414l0.291-7.98a7.036 7.036 0 0 0-7.317-7.286l-7.828 0.334A63.9 63.9 0 0 0 400 199.806V152.619c0-0.076-0.17-0.151-0.173-0.226C398.7 117.44 369.262 88.109 334.31 86.982c-0.076 0-0.235 0.018-0.31 0.018h-5.364A6.662 6.662 0 0 0 322 93.957V99.32c0 0.075-0.012 0.151-0.009 0.226C323.1 134.026 351 163.036 386 164.9Z" fill="#8abe53" data-fill-palette-color="accent"></path></svg></g></svg></g></svg></g><defs></defs></svg><rect width="395.52" height="68.93649264106348" fill="none" stroke="none" visibility="hidden"></rect></g></svg></g></svg>